# xmcd CD database file
#
# Track frame offsets:
#	150
#	45492
#	81375
#	159000
#	225212
#	262560
#
# Disc length: 3942 seconds
#
# Revision: 0
# Processed by: cddbd v1.5.1PL0 Copyright (c) Steve Scherf et al.
# Submitted via: CDex 1.51
#
DISCID=2e0f6406
DTITLE=Tim Armacost - The Wishing Well
DYEAR=2000
DGENRE=Jazz
TTITLE0=Body and Soul
TTITLE1=Sustenance
TTITLE2=Crescent
TTITLE3=Wishing Well
TTITLE4=Black Sand Beach
TTITLE5=Special Delivery
EXTD=YEAR: 2000
EXTT0=
EXTT1=
EXTT2=
EXTT3=
EXTT4=
EXTT5=
PLAYORDER=
